<?xml version="1.0" encoding="UTF-8"?>
<svg id="Layer_2" data-name="Layer 2" xmlns="http://www.w3.org/2000/svg" viewBox="0 0 644.01 644.01">
  <defs>
    <style>
      .cls-1 {
        fill: #231f20;
      }

      .cls-2 {
        fill: #265e6f;
      }
    </style>
  </defs>
  <g id="X">
    <g>
      <path class="cls-2" d="M494.73,629.45c-3.73,0-7.45-1.42-10.3-4.26l-162.43-162.43-162.43,162.43c-2.73,2.73-6.43,4.26-10.3,4.26s-7.57-1.53-10.3-4.26l-120.16-120.16c-5.69-5.69-5.69-14.91,0-20.59l162.43-162.43L18.83,159.58c-5.69-5.69-5.69-14.91,0-20.59L138.98,18.83c2.73-2.73,6.43-4.26,10.3-4.26s7.57,1.53,10.3,4.26l162.43,162.43L484.43,18.83c2.84-2.84,6.57-4.26,10.3-4.26s7.45,1.42,10.3,4.26l120.16,120.16c2.73,2.73,4.26,6.43,4.26,10.3s-1.53,7.57-4.26,10.3l-162.43,162.43,162.43,162.43c2.73,2.73,4.26,6.43,4.26,10.3s-1.53,7.57-4.26,10.3l-120.16,120.16c-2.84,2.84-6.57,4.26-10.3,4.26Z"/>
      <path class="cls-1" d="M494.73,29.12l120.16,120.16-172.72,172.72,172.72,172.72-120.16,120.16-172.72-172.72-172.72,172.72-120.16-120.16,172.72-172.72L29.12,149.28,149.28,29.12l172.72,172.72L494.73,29.12M494.73,0c-7.45,0-14.91,2.84-20.59,8.53l-152.13,152.13L169.87,8.53c-5.69-5.69-13.14-8.53-20.59-8.53s-14.91,2.84-20.59,8.53L8.53,128.69c-11.37,11.37-11.37,29.81,0,41.18l152.13,152.13L8.53,474.14c-11.37,11.37-11.37,29.81,0,41.18l120.16,120.16c5.46,5.46,12.87,8.53,20.59,8.53s15.13-3.07,20.59-8.53l152.13-152.13,152.13,152.13c5.69,5.69,13.14,8.53,20.59,8.53s14.91-2.84,20.59-8.53l120.16-120.16c11.37-11.37,11.37-29.81,0-41.18l-152.13-152.13,152.13-152.13c5.46-5.46,8.53-12.87,8.53-20.59s-3.07-15.13-8.53-20.59l-120.16-120.16c-5.69-5.69-13.14-8.53-20.59-8.53h0Z"/>
    </g>
  </g>
</svg>