<?xml version="1.0" encoding="UTF-8"?>
<svg id="Layer_2" data-name="Layer 2" xmlns="http://www.w3.org/2000/svg" viewBox="0 0 679.95 634.76">
  <defs>
    <style>
      .cls-1 {
        fill: #231f20;
      }

      .cls-2 {
        fill: #ed79b6;
      }
    </style>
  </defs>
  <g id="Heart">
    <g>
      <path class="cls-2" d="M339.97,619.23c-3.5,0-7-1.18-9.87-3.54-.58-.48-58.45-48.2-120.93-104.33-84.71-76.11-137.29-130.89-156.28-162.82-22.6-38.01-35.83-84.53-37.25-130.98-1.45-47.43,9.63-90.32,31.18-120.77,19.95-28.19,41.71-48.2,66.54-61.18,25.77-13.47,56-20.04,92.4-20.08h.17c20.42,0,40.49,4.03,59.65,11.97,15.46,6.41,30.4,15.39,44.4,26.69,8.09,6.53,18.96,16.37,29.98,29.53,11.02-13.16,21.89-23,29.98-29.53,14.01-11.3,28.95-20.28,44.4-26.69,19.16-7.94,39.23-11.97,59.65-11.97h.17c36.4.04,66.62,6.61,92.4,20.08,24.83,12.98,46.6,32.99,66.54,61.18,21.55,30.45,32.62,73.35,31.18,120.78-1.42,46.45-14.64,92.97-37.25,130.98-18.99,31.93-71.57,86.72-156.28,162.82-62.48,56.13-120.35,103.86-120.93,104.33-2.87,2.36-6.37,3.54-9.87,3.54Z"/>
      <path class="cls-1" d="M474.01,31.04s.1,0,.15,0c68.19.07,110.32,23.87,146.29,74.7,40.69,57.5,37.11,161.11-6.74,234.86-43.85,73.75-273.74,263.11-273.74,263.11,0,0-229.89-189.36-273.74-263.11-43.85-73.75-47.43-177.36-6.74-234.86C95.47,54.91,137.6,31.11,205.78,31.04c.05,0,.1,0,.15,0,83.62,0,131.09,74.3,134.04,78.35,2.95-4.04,50.41-78.35,134.04-78.35M474.2,0h-.18c-22.47,0-44.54,4.42-65.6,13.15-16.83,6.97-33.05,16.71-48.21,28.95-5.72,4.62-12.73,10.77-20.24,18.48-7.5-7.7-14.52-13.86-20.23-18.47-15.16-12.24-31.38-21.98-48.21-28.95C250.47,4.43,228.4,0,205.93,0h-.18c-38.96.04-71.53,7.19-99.57,21.85-14.19,7.42-27.07,16.6-39.39,28.07-11.47,10.68-22.14,23.08-32.63,37.9-12.19,17.22-21.29,37.76-27.07,61.04C1.73,170.44-.61,193.71.13,218.03c1.5,49.04,15.5,98.21,39.42,138.44,11.44,19.24,32.98,44.8,65.84,78.15,24.96,25.33,56.39,55.03,93.41,88.29,62.72,56.35,120.85,104.29,121.43,104.77,5.73,4.72,12.73,7.08,19.74,7.08s14-2.36,19.74-7.08c.58-.48,58.71-48.41,121.43-104.77,37.02-33.26,68.44-62.96,93.4-88.29,32.87-33.35,54.4-58.91,65.84-78.15,23.92-40.24,37.92-89.4,39.42-138.44.74-24.32-1.6-47.59-6.95-69.17-5.78-23.28-14.88-43.82-27.07-61.04-10.49-14.82-21.16-27.21-32.63-37.9-12.32-11.47-25.21-20.66-39.39-28.07C545.73,7.19,513.16.04,474.2,0h0Z"/>
    </g>
  </g>
</svg>